HIERARCHY
ROOT hip
{
	OFFSET 0.000000 0.000000 0.000000
	CHANNELS 6 Xposition Yposition Zposition Xrotation Yrotation Zrotation
	JOINT abdomen
	{
		OFFSET 0.0000 3.3100 -0.0000
		CHANNELS 3 Xrotation Yrotation Zrotation
		JOINT chest
		{
			OFFSET 0.0000 8.0660 -0.6050
			CHANNELS 3 Xrotation Yrotation Zrotation
			JOINT neck
			{
				OFFSET 0.0000 9.8861 -0.3705
				CHANNELS 3 Xrotation Yrotation Zrotation
				JOINT head
				{
					OFFSET 0.0000 2.9776 -0.0000
					CHANNELS 3 Xrotation Yrotation Zrotation
					JOINT mEyeRight
					{
						OFFSET -1.4203 2.8770 3.5859
						CHANNELS 3 Xrotation Yrotation Zrotation
						End Site
						{
							OFFSET 0.0000 0.0000 0.9843
						}
					}
					JOINT mEyeLeft
					{
						OFFSET 1.4203 2.8770 3.5857
						CHANNELS 3 Xrotation Yrotation Zrotation
						End Site
						{
							OFFSET 0.0000 0.0000 0.9843
						}
					}
					JOINT mFaceRoot
					{
						OFFSET 0.0000 1.6934 0.9104
						CHANNELS 3 Xrotation Yrotation Zrotation
						JOINT mFaceForeheadLeft
						{
							OFFSET 1.3035 3.0608 2.3307
							CHANNELS 3 Xrotation Yrotation Zrotation
							End Site
							{
								OFFSET 0.1575 0.7087 0.9449
							}
						}
						JOINT mFaceForeheadRight
						{
							OFFSET -1.3035 3.0608 2.3307
							CHANNELS 3 Xrotation Yrotation Zrotation
							End Site
							{
								OFFSET -0.1575 0.7087 0.9449
							}
						}
						JOINT mFaceEyebrowOuterLeft
						{
							OFFSET 1.9168 1.7290 2.3307
							CHANNELS 3 Xrotation Yrotation Zrotation
							End Site
							{
								OFFSET 0.5118 0.0000 0.9055
							}
						}
						JOINT mFaceEyebrowCenterLeft
						{
							OFFSET 1.6711 2.1467 2.5492
							CHANNELS 3 Xrotation Yrotation Zrotation
							End Site
							{
								OFFSET 0.0000 0.0000 1.0630
							}
						}
						JOINT mFaceEyebrowInnerLeft
						{
							OFFSET 0.9060 1.8578 2.7313
							CHANNELS 3 Xrotation Yrotation Zrotation
							End Site
							{
								OFFSET 0.0000 0.0000 1.0236
							}
						}
						JOINT mFaceEyebrowOuterRight
						{
							OFFSET -1.9168 1.7290 2.3307
							CHANNELS 3 Xrotation Yrotation Zrotation
							End Site
							{
								OFFSET -0.5118 0.0000 0.9055
							}
						}
						JOINT mFaceEyebrowCenterRight
						{
							OFFSET -1.6711 2.1467 2.5492
							CHANNELS 3 Xrotation Yrotation Zrotation
							End Site
							{
								OFFSET 0.0000 0.0000 1.0630
							}
						}
						JOINT mFaceEyebrowInnerRight
						{
							OFFSET -0.9060 1.8578 2.7313
							CHANNELS 3 Xrotation Yrotation Zrotation
							End Site
							{
								OFFSET 0.0000 0.0000 1.0236
							}
						}
						JOINT mFaceEyeLidUpperLeft
						{
							OFFSET 1.4156 1.1887 2.6585
							CHANNELS 3 Xrotation Yrotation Zrotation
							End Site
							{
								OFFSET 0.0000 0.1969 1.0630
							}
						}
						JOINT mFaceEyeLidLowerLeft
						{
							OFFSET 1.4156 1.1834 2.6585
							CHANNELS 3 Xrotation Yrotation Zrotation
							End Site
							{
								OFFSET 0.0000 -0.2756 0.9449
							}
						}
						JOINT mFaceEyeLidUpperRight
						{
							OFFSET -1.4156 1.1887 2.6585
							CHANNELS 3 Xrotation Yrotation Zrotation
							End Site
							{
								OFFSET 0.0000 0.1969 1.0630
							}
						}
						JOINT mFaceEyeLidLowerRight
						{
							OFFSET -1.4156 1.1834 2.6585
							CHANNELS 3 Xrotation Yrotation Zrotation
							End Site
							{
								OFFSET 0.0000 -0.2756 0.9449
							}
						}
						JOINT mFaceEar1Left
						{
							OFFSET 2.9795 0.0712 -0.0000
							CHANNELS 3 Xrotation Yrotation Zrotation
							JOINT mFaceEar2Left
							{
								OFFSET 0.7087 0.9842 -0.7480
								CHANNELS 3 Xrotation Yrotation Zrotation
								End Site
								{
									OFFSET 0.0000 1.2992 -0.0000
								}
							}
						}
						JOINT mFaceEar1Right
						{
							OFFSET -2.9795 0.0712 -0.0000
							CHANNELS 3 Xrotation Yrotation Zrotation
							JOINT mFaceEar2Right
							{
								OFFSET -0.7087 0.9842 -0.7480
								CHANNELS 3 Xrotation Yrotation Zrotation
								End Site
								{
									OFFSET 0.0000 1.2992 -0.0000
								}
							}
						}
						JOINT mFaceNoseLeft
						{
							OFFSET 0.5587 -0.1957 3.1319
							CHANNELS 3 Xrotation Yrotation Zrotation
							End Site
							{
								OFFSET 0.1575 0.0000 0.5906
							}
						}
						JOINT mFaceNoseCenter
						{
							OFFSET 0.0000 -0.0534 3.7146
							CHANNELS 3 Xrotation Yrotation Zrotation
							End Site
							{
								OFFSET 0.0000 0.0000 0.9843
							}
						}
						JOINT mFaceNoseRight
						{
							OFFSET -0.5587 -0.1957 3.1319
							CHANNELS 3 Xrotation Yrotation Zrotation
							End Site
							{
								OFFSET -0.1575 0.0000 0.5906
							}
						}
						JOINT mFaceCheekLowerLeft
						{
							OFFSET 1.2663 -1.1941 1.8209
							CHANNELS 3 Xrotation Yrotation Zrotation
							End Site
							{
								OFFSET 1.1811 0.0000 0.5118
							}
						}
						JOINT mFaceCheekUpperLeft
						{
							OFFSET 1.2663 -0.2313 2.5492
							CHANNELS 3 Xrotation Yrotation Zrotation
							End Site
							{
								OFFSET 0.5906 0.0000 0.8661
							}
						}
						JOINT mFaceCheekLowerRight
						{
							OFFSET -1.2663 -1.1941 1.8209
							CHANNELS 3 Xrotation Yrotation Zrotation
							End Site
							{
								OFFSET -1.1811 0.0000 0.5118
							}
						}
						JOINT mFaceCheekUpperRight
						{
							OFFSET -1.2663 -0.2313 2.5492
							CHANNELS 3 Xrotation Yrotation Zrotation
							End Site
							{
								OFFSET -0.5906 0.0000 0.8661
							}
						}
						JOINT mFaceJaw
						{
							OFFSET 0.0000 -0.5339 -0.0364
							CHANNELS 3 Xrotation Yrotation Zrotation
							JOINT mFaceChin
							{
								OFFSET 0.0000 -2.0212 2.5310
								CHANNELS 3 Xrotation Yrotation Zrotation
								End Site
								{
									OFFSET 0.0000 -0.7087 0.8268
								}
							}
							JOINT mFaceTeethLower
							{
								OFFSET 0.0000 -1.4869 0.7648
								CHANNELS 3 Xrotation Yrotation Zrotation
								JOINT mFaceLipLowerLeft
								{
									OFFSET 0.0000 0.0000 1.6388
									CHANNELS 3 Xrotation Yrotation Zrotation
									End Site
									{
										OFFSET 0.6693 0.1969 1.3386
									}
								}
								JOINT mFaceLipLowerRight
								{
									OFFSET 0.0000 0.0000 1.6388
									CHANNELS 3 Xrotation Yrotation Zrotation
									End Site
									{
										OFFSET -0.6693 0.1969 1.3386
									}
								}
								JOINT mFaceLipLowerCenter
								{
									OFFSET 0.0000 0.0000 1.6388
									CHANNELS 3 Xrotation Yrotation Zrotation
									End Site
									{
										OFFSET 0.0000 0.0787 1.5748
									}
								}
								JOINT mFaceTongueBase
								{
									OFFSET 0.0000 0.1821 1.4203
									CHANNELS 3 Xrotation Yrotation Zrotation
									JOINT mFaceTongueTip
									{
										OFFSET 0.0000 0.2549 0.8012
										CHANNELS 3 Xrotation Yrotation Zrotation
										End Site
										{
											OFFSET 0.0000 0.0000 0.3937
										}
									}
								}
							}
						}
						JOINT mFaceJawShaper
						{
							OFFSET 0.0000 0.0000 0.0000
							CHANNELS 3 Xrotation Yrotation Zrotation
							End Site
							{
								OFFSET 0.0000 -0.0000 -0.6693
							}
						}
						JOINT mFaceForeheadCenter
						{
							OFFSET 0.0000 2.3027 2.5237
							CHANNELS 3 Xrotation Yrotation Zrotation
							End Site
							{
								OFFSET 0.0000 0.0000 1.4173
							}
						}
						JOINT mFaceNoseBase
						{
							OFFSET 0.0000 -0.7047 3.4232
							CHANNELS 3 Xrotation Yrotation Zrotation
							End Site
							{
								OFFSET 0.0000 0.0000 0.5512
							}
						}
						JOINT mFaceTeethUpper
						{
							OFFSET 0.0000 -1.1478 0.7283
							CHANNELS 3 Xrotation Yrotation Zrotation
							JOINT mFaceLipUpperLeft
							{
								OFFSET 0.0000 -0.1478 1.6388
								CHANNELS 3 Xrotation Yrotation Zrotation
								End Site
								{
									OFFSET 0.5906 0.0000 1.6142
								}
							}
							JOINT mFaceLipUpperRight
							{
								OFFSET 0.0000 -0.1478 1.6388
								CHANNELS 3 Xrotation Yrotation Zrotation
								End Site
								{
									OFFSET -0.5906 0.0000 1.6142
								}
							}
							JOINT mFaceLipCornerLeft
							{
								OFFSET -0.6919 -0.3642 1.0197
								CHANNELS 3 Xrotation Yrotation Zrotation
								End Site
								{
									OFFSET 2.0079 0.0000 1.7717
								}
							}
							JOINT mFaceLipCornerRight
							{
								OFFSET 0.6919 -0.3642 1.0197
								CHANNELS 3 Xrotation Yrotation Zrotation
								End Site
								{
									OFFSET -2.0079 0.0000 1.7717
								}
							}
							JOINT mFaceLipUpperCenter
							{
								OFFSET 0.0000 -0.0964 1.6388
								CHANNELS 3 Xrotation Yrotation Zrotation
								End Site
								{
									OFFSET 0.0000 0.0787 1.6929
								}
							}
						}
						JOINT mFaceEyecornerInnerLeft
						{
							OFFSET 0.7135 1.1122 2.7313
							CHANNELS 3 Xrotation Yrotation Zrotation
							End Site
							{
								OFFSET 0.0000 0.0000 0.6299
							}
						}
						JOINT mFaceEyecornerInnerRight
						{
							OFFSET -0.7135 1.1122 2.7313
							CHANNELS 3 Xrotation Yrotation Zrotation
							End Site
							{
								OFFSET 0.0000 0.0000 0.6299
							}
						}
						JOINT mFaceNoseBridge
						{
							OFFSET 0.0000 0.7118 3.3140
							CHANNELS 3 Xrotation Yrotation Zrotation
							End Site
							{
								OFFSET 0.0000 0.3150 0.5906
							}
						}
					}
				}
			}
			JOINT lCollar
			{
				OFFSET 2.8220 6.5116 -0.8157
				CHANNELS 3 Xrotation Yrotation Zrotation
				JOINT lShldr
				{
					OFFSET 3.1102 0.0000 0.0000
					CHANNELS 3 Xrotation Yrotation Zrotation
					JOINT lForeArm
					{
						OFFSET 10.9354 0.0000 0.0000
						CHANNELS 3 Xrotation Yrotation Zrotation
						JOINT lHand
						{
							OFFSET 9.5165 0.0000 0.0000
							CHANNELS 3 Xrotation Yrotation Zrotation
							End Site
							{
								OFFSET 2.3622 0.0000 0.0000
							}
						}
					}
				}
			}
			JOINT rCollar
			{
				OFFSET -2.8346 6.5116 -0.8157
				CHANNELS 3 Xrotation Yrotation Zrotation
				JOINT rShldr
				{
					OFFSET -3.1267 0.0000 0.0000
					CHANNELS 3 Xrotation Yrotation Zrotation
					JOINT rForeArm
					{
						OFFSET -10.9354 0.0000 0.0000
						CHANNELS 3 Xrotation Yrotation Zrotation
						JOINT rHand
						{
							OFFSET -9.5236 0.0000 0.0000
							CHANNELS 3 Xrotation Yrotation Zrotation
							End Site
							{
								OFFSET -2.3622 0.0000 0.0000
							}
						}
					}
				}
			}
		}
	}
	JOINT rThigh
	{
		OFFSET -5.0711 -1.6176 1.3236
		CHANNELS 3 Xrotation Yrotation Zrotation
		JOINT rShin
		{
			OFFSET 1.9148 -19.3276 -0.0307
			CHANNELS 3 Xrotation Yrotation Zrotation
			JOINT rFoot
			{
				OFFSET 0.0000 -18.4446 -1.1366
				CHANNELS 3 Xrotation Yrotation Zrotation
				End Site
				{
					OFFSET 0.0000 -2.3873 4.4077
				}
			}
		}
	}
	JOINT lThigh
	{
		OFFSET 4.9907 -1.6141 1.3290
		CHANNELS 3 Xrotation Yrotation Zrotation
		JOINT lShin
		{
			OFFSET -1.7940 -19.3328 -0.0349
			CHANNELS 3 Xrotation Yrotation Zrotation
			JOINT lFoot
			{
				OFFSET 0.0543 -18.4428 -1.1373
				CHANNELS 3 Xrotation Yrotation Zrotation
				End Site
				{
					OFFSET 0.0000 -2.3866 4.4077
				}
			}
		}
	}
}
MOTION
Frames: 5
Frame Time: 0.041667
0.0000 42.0084 0.0000 0.0000 0.0000 0.0000 0.0000 0.0000 0.0000 0.0000 0.0000 0.0000 0.0000 0.0000 0.0000 0.0000 0.0000 0.0000 0.0000 0.0000 0.0000 0.0000 0.0000 0.0000 0.0000 0.0000 0.0000 0.0000 0.0000 0.0000 0.0000 0.0000 0.0000 0.0000 0.0000 0.0000 0.0000 0.0000 0.0000 0.0000 0.0000 0.0000 0.0000 0.0000 0.0000 0.0000 0.0000 0.0000 0.0000 0.0000 0.0000 0.0000 0.0000 0.0000 0.0000 0.0000 0.0000 0.0000 0.0000 0.0000 0.0000 0.0000 0.0000 0.0000 0.0000 0.0000 0.0000 0.0000 0.0000 0.0000 0.0000 0.0000 0.0000 0.0000 0.0000 0.0000 0.0000 0.0000 0.0000 0.0000 0.0000 0.0000 0.0000 0.0000 0.0000 0.0000 0.0000 0.0000 0.0000 0.0000 0.0000 0.0000 0.0000 0.0000 0.0000 0.0000 0.0000 0.0000 0.0000 0.0000 0.0000 0.0000 0.0000 0.0000 0.0000 0.0000 0.0000 0.0000 0.0000 0.0000 0.0000 0.0000 0.0000 0.0000 0.0000 0.0000 0.0000 0.0000 0.0000 0.0000 0.0000 0.0000 0.0000 0.0000 0.0000 0.0000 0.0000 0.0000 0.0000 0.0000 0.0000 0.0000 0.0000 0.0000 0.0000 0.0000 0.0000 0.0000 0.0000 0.0000 0.0000 0.0000 0.0000 0.0000 0.0000 0.0000 0.0000 0.0000 0.0000 0.0000 0.0000 0.0000 0.0000 0.0000 0.0000 0.0000 0.0000 0.0000 0.0000 0.0000 0.0000 0.0000 0.0000 0.0000 0.0000 0.0000 0.0000 0.0000 0.0000 0.0000 0.0000 0.0000 0.0000 0.0000 0.0000 0.0000 0.0000 0.0000 0.0000 0.0000 0.0000 0.0000 0.0000 0.0000 0.0000 0.0000 0.0000 0.0000 0.0000 0.0000 0.0000 0.0000 0.0000 0.0000 0.0000 0.0000 0.0000 0.0000 
0.0000 42.0084 0.0000 0.0000 0.0000 0.0000 0.0000 0.0000 0.0000 0.0000 0.0000 0.0000 0.0000 0.0000 0.0000 0.0000 0.0000 0.0000 -0.0003 1.4321 0.0000 -0.0003 -1.4321 0.0000 0.0000 0.0000 0.0000 0.0000 0.0000 0.0000 0.0000 0.0000 0.0000 0.0000 0.0000 0.0000 0.0000 0.0000 0.0000 0.0000 0.0000 0.0000 0.0000 0.0000 0.0000 0.0000 0.0000 0.0000 0.0000 0.0000 0.0000 0.0000 0.0000 0.0000 0.0000 0.0000 0.0000 0.0000 0.0000 0.0000 0.0000 0.0000 0.0000 0.0000 0.0000 0.0000 0.0000 0.0000 0.0000 0.0000 0.0000 0.0000 0.0000 0.0000 0.0000 0.0000 0.0000 0.0000 0.0000 0.0000 0.0000 0.0000 0.0000 0.0000 0.0000 0.0000 0.0000 0.0000 0.0000 0.0000 0.0000 0.0000 0.0000 0.0000 0.0000 0.0000 0.0000 0.0000 0.0000 0.0000 0.0000 0.0000 0.0000 0.0000 0.0000 0.0000 0.0000 0.0000 0.0000 0.0000 0.0000 0.0000 0.0000 0.0000 0.0000 0.0000 0.0000 0.0000 0.0000 0.0000 0.0000 0.0000 0.0000 0.0000 0.0000 0.0000 0.0000 0.0000 0.0000 0.0000 0.0000 0.0000 0.0000 0.0000 0.0000 0.0000 0.0000 0.0000 0.0000 0.0000 0.0000 0.0000 0.0000 0.0000 0.0000 0.0000 0.0000 0.0000 0.0000 0.0000 0.0000 0.0000 0.0000 0.0000 0.0000 0.0000 0.0000 0.0000 0.0000 14.5019 -3.1512 -79.5488 0.0000 -29.6238 0.0000 -5.8310 15.7925 -9.3659 0.0000 0.0000 0.0000 14.5676 3.1479 79.5221 0.0000 29.7487 0.0000 -5.8473 -15.8535 9.3759 -0.0014 0.0000 0.0000 0.0028 0.0000 0.0000 -0.0015 0.0000 0.0000 0.0000 0.0000 0.0000 0.0003 0.0000 0.0000 -0.0002 0.0000 0.0000 
0.0000 41.8999 -0.0219 0.0000 0.0000 0.0000 0.0000 0.0000 0.0000 0.0000 0.0000 0.0000 0.0000 0.0000 0.0000 0.0000 0.0000 0.0000 -0.0003 1.4321 0.0000 -0.0003 -1.4321 0.0000 0.0000 0.0000 0.0000 0.0000 0.0000 0.0000 0.0000 0.0000 0.0000 0.0000 0.0000 0.0000 0.0000 0.0000 0.0000 0.0000 0.0000 0.0000 0.0000 0.0000 0.0000 0.0000 0.0000 0.0000 0.0000 0.0000 0.0000 0.0000 0.0000 0.0000 0.0000 0.0000 0.0000 0.0000 0.0000 0.0000 0.0000 0.0000 0.0000 0.0000 0.0000 0.0000 0.0000 0.0000 0.0000 0.0000 0.0000 0.0000 0.0000 0.0000 0.0000 0.0000 0.0000 0.0000 0.0000 0.0000 0.0000 0.0000 0.0000 0.0000 0.0000 0.0000 0.0000 0.0000 0.0000 0.0000 0.0000 0.0000 0.0000 0.0000 0.0000 0.0000 0.0000 0.0000 0.0000 0.0000 0.0000 0.0000 0.0000 0.0000 0.0000 0.0000 0.0000 0.0000 0.0000 0.0000 0.0000 0.0000 0.0000 0.0000 0.0000 0.0000 0.0000 0.0000 0.0000 0.0000 0.0000 0.0000 0.0000 0.0000 0.0000 0.0000 0.0000 0.0000 0.0000 0.0000 0.0000 0.0000 0.0000 0.0000 0.0000 0.0000 0.0000 0.0000 0.0000 0.0000 0.0000 0.0000 0.0000 0.0000 0.0000 0.0000 0.0000 0.0000 0.0000 0.0000 0.0000 0.0000 0.0000 0.0000 0.0000 0.0000 0.0000 0.0000 0.0000 14.5094 -3.1526 -79.5702 0.0000 -29.8098 0.0000 -5.7482 15.8363 -9.2234 0.0000 0.0000 0.0000 14.5748 3.1492 79.5435 0.0000 29.9339 0.0000 -5.7643 -15.8968 9.2336 -3.0250 -0.1205 -0.0131 6.1798 0.0000 0.0000 -2.8056 0.1211 0.0060 -3.0237 0.1047 0.0039 6.1755 0.0180 0.0172 -2.8027 -0.1219 -0.0157 
0.0000 41.5847 -0.0854 0.0000 0.0000 0.0000 0.0000 0.0000 0.0000 0.0000 0.0000 0.0000 0.0000 0.0000 0.0000 0.0000 0.0000 0.0000 -0.0003 1.4321 0.0000 -0.0003 -1.4321 0.0000 0.0000 0.0000 0.0000 0.0000 0.0000 0.0000 0.0000 0.0000 0.0000 0.0000 0.0000 0.0000 0.0000 0.0000 0.0000 0.0000 0.0000 0.0000 0.0000 0.0000 0.0000 0.0000 0.0000 0.0000 0.0000 0.0000 0.0000 0.0000 0.0000 0.0000 0.0000 0.0000 0.0000 0.0000 0.0000 0.0000 0.0000 0.0000 0.0000 0.0000 0.0000 0.0000 0.0000 0.0000 0.0000 0.0000 0.0000 0.0000 0.0000 0.0000 0.0000 0.0000 0.0000 0.0000 0.0000 0.0000 0.0000 0.0000 0.0000 0.0000 0.0000 0.0000 0.0000 0.0000 0.0000 0.0000 0.0000 0.0000 0.0000 0.0000 0.0000 0.0000 0.0000 0.0000 0.0000 0.0000 0.0000 0.0000 0.0000 0.0000 0.0000 0.0000 0.0000 0.0000 0.0000 0.0000 0.0000 0.0000 0.0000 0.0000 0.0000 0.0000 0.0000 0.0000 0.0000 0.0000 0.0000 0.0000 0.0000 0.0000 0.0000 0.0000 0.0000 0.0000 0.0000 0.0000 0.0000 0.0000 0.0000 0.0000 0.0000 0.0000 0.0000 0.0000 0.0000 0.0000 0.0000 0.0000 0.0000 0.0000 0.0000 0.0000 0.0000 0.0000 0.0000 0.0000 0.0000 0.0000 0.0000 0.0000 0.0000 0.0000 0.0000 0.0000 0.0000 14.5393 -3.1578 -79.6316 0.0000 -30.3555 0.0000 -5.5069 15.9619 -8.8108 0.0000 0.0000 0.0000 14.6042 3.1543 79.6049 0.0000 30.4779 0.0000 -5.5228 -16.0212 8.8213 -7.1693 -0.2396 -0.0493 14.5985 0.0000 0.0000 -6.0584 0.2443 0.0131 -7.1688 0.1999 0.0258 14.5939 0.0453 0.0373 -6.0544 -0.2426 -0.0376 
0.0000 41.0780 -0.1875 0.0000 0.0000 0.0000 0.0000 0.0000 0.0000 0.0000 0.0000 0.0000 0.0000 0.0000 0.0000 0.0000 0.0000 0.0000 -0.0003 1.4321 0.0000 -0.0003 -1.4321 0.0000 0.0000 0.0000 0.0000 0.0000 0.0000 0.0000 0.0000 0.0000 0.0000 0.0000 0.0000 0.0000 0.0000 0.0000 0.0000 0.0000 0.0000 0.0000 0.0000 0.0000 0.0000 0.0000 0.0000 0.0000 0.0000 0.0000 0.0000 0.0000 0.0000 0.0000 0.0000 0.0000 0.0000 0.0000 0.0000 0.0000 0.0000 0.0000 0.0000 0.0000 0.0000 0.0000 0.0000 0.0000 0.0000 0.0000 0.0000 0.0000 0.0000 0.0000 0.0000 0.0000 0.0000 0.0000 0.0000 0.0000 0.0000 0.0000 0.0000 0.0000 0.0000 0.0000 0.0000 0.0000 0.0000 0.0000 0.0000 0.0000 0.0000 0.0000 0.0000 0.0000 0.0000 0.0000 0.0000 0.0000 0.0000 0.0000 0.0000 0.0000 0.0000 0.0000 0.0000 0.0000 0.0000 0.0000 0.0000 0.0000 0.0000 0.0000 0.0000 0.0000 0.0000 0.0000 0.0000 0.0000 0.0000 0.0000 0.0000 0.0000 0.0000 0.0000 0.0000 0.0000 0.0000 0.0000 0.0000 0.0000 0.0000 0.0000 0.0000 0.0000 0.0000 0.0000 0.0000 0.0000 0.0000 0.0000 0.0000 0.0000 0.0000 0.0000 0.0000 0.0000 0.0000 0.0000 0.0000 0.0000 0.0000 0.0000 0.0000 0.0000 0.0000 0.0000 0.0000 14.5535 -3.1809 -79.7304 0.0000 -31.1745 0.0000 -5.1176 16.1440 -8.1531 0.0000 0.0000 0.0000 14.6171 3.1773 79.7037 0.0000 31.2935 0.0000 -5.1331 -16.2009 8.1642 -11.3523 -0.3197 -0.1007 23.0708 0.0000 0.0000 -8.6837 0.3348 0.0181 -11.3530 0.2534 0.0604 23.0664 0.0754 0.0533 -8.6788 -0.3270 -0.0595 
